<svg width="779" height="784" xmlns="http://www.w3.org/2000/svg" xmlns:xlink="http://www.w3.org/1999/xlink" xml:space="preserve" overflow="hidden"><defs><clipPath id="clip0"><rect x="2033" y="691" width="779" height="784"/></clipPath></defs><g clip-path="url(#clip0)" transform="translate(-2033 -691)"><path d="M2596 1193C2596 1348.74 2469.97 1475 2314.5 1475 2220.67 1475 2126.83 1475 2033 1475 2033 1381 2033 1287 2033 1193 2033 1037.26 2159.03 911 2314.5 911 2469.97 911 2596 1037.26 2596 1193Z" fill="#041B29" fill-rule="evenodd" fill-opacity="0.8"/><path d="M2530 691C2685.74 691 2812 817.255 2812 973 2812 1067 2812 1161 2812 1255 2718 1255 2624 1255 2530 1255 2374.26 1255 2248 1128.74 2248 973 2248 817.255 2374.26 691 2530 691Z" fill="#1C40CA" fill-rule="evenodd" fill-opacity="0.74902"/></g></svg>